<svg width="140" height="129" viewBox="0 0 140 129" fill="none" xmlns="http://www.w3.org/2000/svg">
<path fill-rule="evenodd" clip-rule="evenodd" d="M73.3952 19.7608C80.379 22.7333 87.4539 24.31 94.9405 25.5983C108.786 27.9808 126.397 20.2845 135.944 30.5241C144.575 39.7801 137.229 55.3388 134.064 67.5563C131.171 78.7241 125.028 88.1784 118.534 97.7374C111.163 108.585 105.923 122.581 93.5756 127.15C81.1187 131.759 66.9347 126.986 54.9553 121.263C44.07 116.062 38.281 104.923 29.5968 96.5843C19.8544 87.2297 4.26528 82.2696 0.796191 69.2598C-2.69227 56.1774 6.05107 43.2183 12.138 31.1101C18.039 19.3718 22.4836 2.69199 35.4702 0.285923C49.7496 -2.35968 60.0439 14.0781 73.3952 19.7608Z" fill="#94F2E9"/>
</svg>
